<?xml version="1.0" ?><svg viewBox="0 0 512 512" xmlns="http://www.w3.org/2000/svg"><title/><g id="Democracy_monument"><path d="M256,298.79a13.71,13.71,0,1,0,13.7,13.7A13.72,13.72,0,0,0,256,298.79Zm0,23.41a9.71,9.71,0,1,1,9.7-9.71A9.73,9.73,0,0,1,256,322.2Z"/><path d="M485.79,431.25V414.51h-4.61V377.72h4.61V364.25H474.32L460.54,196.12,427.71,76.75H412.85V169.3l-13.36,6.91v188h0L389.13,242.68l-27.46-96.26H348.72v74.49l-11.14,5.49V375.79H327.45V387.4h3.84v30.4h-3.84v2.7H313.94V410.26h-4.86v-33.8h4.86V358.9h-9.83V300.46A33.84,33.84,0,0,0,278,267.57l-3.53-10.95H269.7v-4.2h3.71v-4H269.7v-6a11.89,11.89,0,0,0,5.38-7.87l.8-4.19H278v-4H267V216.08a9.61,9.61,0,0,0,4.13-6.23l.55-2.86h4.36v-4H235.94v4h4.36l.54,2.86a9.66,9.66,0,0,0,4.14,6.23v10.25H234.05v4h2.07l.8,4.19a11.88,11.88,0,0,0,5.37,7.87v6h-3.7v4h3.7v4.2H237.5L234,267.57a33.83,33.83,0,0,0-26.08,32.89V358.9h-9.83v17.56h4.86v33.8h-4.86V420.5H184.55v-2.7h-3.84V387.4h3.84V375.79H174.42V226.4l-11.14-5.49V146.42H150.33L122.94,242.3l-10.4,122h0v-188L99.15,169.3V76.75H84.29L51.47,195.93,37.68,364.25H26.21v13.47h4.61v36.79H26.21v16.74H10v4H502v-4ZM163.28,225.37l7.14,3.52v146.9h-7.14Zm-9.44-75h5.44V375.79H145.19v-93a22,22,0,0,1,2.07-9.32,22.88,22.88,0,0,1,5.88-7.71l.7-.59Zm-4,94.84-18.49-17.83,9-31.37,9.53,9.18Zm0-45.57-8.28-8,8.28-29Zm-19.73,32.1,19.73,19v12.5a26.33,26.33,0,0,0-8.64,19.18l-16.36-15.77,2-23.51ZM116.56,364.25l.69-8.17,20.44,19.71h-13V364.25Zm24.63-30.65v40L117.69,351l3.14-37Zm-19.92-24.77,3.14-37L141.19,288v40Zm-22.12-135,9.36,4.85v21.83H99.15Zm0,30.68h9.36v20.76H99.15Zm0,24.76h9.36V250H99.15Zm0,24.74h9.36v20.75H99.15Zm0,24.75h9.36v18.38H99.15Zm0,22.38h9.36v18.38H99.15Zm0,22.38h9.36v18.38H99.15Zm0,22.38h9.36v18.37H99.15ZM87.82,80.75h7.33v283.5H77.44V245.94a28.93,28.93,0,0,1,9.7-21.59l.68-.59Zm-4,119.55L60.76,177.25l11-40,12,12Zm0-56.71L73,132.78,83.82,93.55Zm-24.28,38.1L83.82,206v16a32.85,32.85,0,0,0-10.38,24v.7L53,226.2l2.42-29.57ZM44,336.26l28,28H41.7ZM73.44,309v51.05l-29-29,3.86-47.19ZM48.71,278.61l3.87-47.18,20.86,20.86v51.06Zm-18.5,95.11v-5.47h90.46v5.47H30.21Zm85.85,4v36.79H34.82V377.72Zm4.61,53.53H30.21V418.51h90.46Zm-.61-16.74V387.4h56.65v30.4h-52v-3.29Zm60.49,16.74H124.77V421.8h55.78Zm0-48.11H120.06v-3.35h60.49ZM309.94,362.9v9.56h-.86v-.2H269.7V362.9h40.24Zm-4.86,13.56v33.8H294.22v-33.8ZM246.29,358.9V339.63H265.7V358.9Zm19.41,4v47.36H258V362.9Zm-11.7,0v47.36h-7.71V362.9Zm-11.71-27.27V358.9h-12.2V296.58A25.94,25.94,0,0,1,256,270.67h0a25.94,25.94,0,0,1,25.88,25.91V358.9H269.7V335.63Zm27.41,40.83h20.52v33.8H269.7Zm30.41-76V358.9H285.9V296.58a29.91,29.91,0,0,0-15-25.89A29.81,29.81,0,0,1,300.11,300.46ZM244.77,209.1l-.4-2.11h23.25l-.4,2.11a5.64,5.64,0,0,1-5.55,4.6H250.33A5.66,5.66,0,0,1,244.77,209.1ZM263,217.7v8.63H249V217.7h14Zm-22.17,16.08-.66-3.45h31.62l-.66,3.45a7.93,7.93,0,0,1-7.79,6.45H248.64A7.92,7.92,0,0,1,240.85,233.78Zm5.44,14.64v-4.19H265.7v4.19Zm19.41,4v4.2H246.29v-4.2Zm-25.28,8.2h31.16l1.84,5.72H238.57Zm-28.53,39.84a29.81,29.81,0,0,1,29.17-29.77,29.92,29.92,0,0,0-15,25.89V358.9h-14.2Zm-9.83,72V362.9h40.23v9.36H202.92v.2Zm40.23,4v33.8H221.35v-33.8Zm-24.94,0v33.8H206.92v-33.8Zm-15.29,37.8H309.94v6.24H202.06Zm125.39,16.48H184.65V424.5h142.8ZM470.3,364.25H440l28-28ZM438.55,252.3l20.87-20.87,3.87,47.18-24.74,24.74Zm0,56.71,25.17-25.17L467.58,331l-29,29ZM459,226.2l-20.44,20.44v-.7a32.69,32.69,0,0,0-10.37-24V206l24.28-24.27,4.11,14.94Zm-30.81-77,12-12,11,40-23.06,23.06ZM439,132.78l-10.81,10.81v-50Zm-22.14-52h7.33v143l.68.6a28.74,28.74,0,0,1,9.69,21.59V364.25h-17.7Zm-13.36,97.9,9.36-4.85v26.68h-9.36Zm0,25.83h9.36v20.76h-9.36Zm0,24.76h9.36V250h-9.36Zm0,24.74h9.36v20.75h-9.36Zm0,24.75h9.36v18.38h-9.36Zm0,22.38h9.36v18.38h-9.36Zm0,22.38h9.36v18.38h-9.36Zm0,22.38h9.36v18.37h-9.36Zm-4,22.38h82.3v5.47H391.33v-5.47Zm77.69,9.47v36.79H395.94V377.72ZM370.81,288l16.78-16.18,3.14,37-19.92,19.22Zm0,45.56L391.17,314l3.14,37-23.5,22.66Zm23.94,22.48.69,8.17h-8.11v11.54h-13Zm-7.59-89.36L370.8,282.49a26.33,26.33,0,0,0-8.64-19.18v-12.5l19.73-19,3.27,11.42Zm-25-61.48,9.53-9.18,9,31.37-18.49,17.83Zm8.28-13.54-8.28,8v-37Zm-17.72-41.28h5.44V265.13l.7.59a22.88,22.88,0,0,1,5.88,7.71,22,22,0,0,1,2.07,9.32v93H352.72Zm-11.14,78.47,7.14-3.52V375.79h-7.14Zm-10.13,150.9h60.49v3.35H331.45Zm55.78,51.46H331.45V421.8h55.78Zm.1-16.74v3.29h-52V387.4h56.65v27.11Zm94.46,16.74H391.33V418.51h90.46Z"/></g></svg>